<svg width="107" height="54" viewBox="0 0 107 54" fill="none" xmlns="http://www.w3.org/2000/svg">
<path d="M90.0791 3.5V4.89551H92.6143V6.52344H94.7881V7.68652H100.5V43.8486H94.7881V45.709H92.6143V46.8721H90.4414V48.5H10.7441V47.1045H8.20898V45.4766H6.03516V43.8486H3.5V7.91895H6.03516V6.52344H8.20898V4.89551H10.7441V3.5H90.0791Z" fill="white"/>
<path d="M94.0498 0V2.96875H97.5322V6.43262H100.518V9.40234H104V42.1035H100.518V45.5674H97.5322V48.5361H94.5469V52H9.9502V49.0312H6.46777V45.5674H3.48242V42.1035H0V9.40234H3.48242V6.43262H6.46777V2.96875H9.9502V0H94.0498ZM13.9502 6.96875H10.4678V10.4326H7.48242V13.4023H4V38.1035H7.48242V41.5674H10.4678V45.0312H13.9502V48H90.5469V44.5361H93.5322V41.5674H96.5176V38.1035H100V13.4023H96.5176V10.4326H93.5322V6.96875H90.0498V4H13.9502V6.96875Z" fill="black"/>
<rect width="4" height="4" transform="matrix(-1 0 0 1 60 16)" fill="black"/>
<rect width="4" height="4" transform="matrix(-1 0 0 1 64 20)" fill="black"/>
<rect width="4" height="4" transform="matrix(-1 0 0 1 68 24)" fill="black"/>
<rect width="4" height="4" transform="matrix(-1 0 0 1 64 24)" fill="black"/>
<rect width="4" height="4" transform="matrix(-1 0 0 1 64 28)" fill="black"/>
<rect width="4" height="4" transform="matrix(-1 0 0 1 60 32)" fill="black"/>
<rect width="4" height="4" transform="matrix(-1 0 0 1 60 24)" fill="black"/>
<rect width="4" height="4" transform="matrix(-1 0 0 1 56 24)" fill="black"/>
<rect width="4" height="4" transform="matrix(-1 0 0 1 52 24)" fill="black"/>
<rect width="4" height="4" transform="matrix(-1 0 0 1 48 24)" fill="black"/>
<rect width="4" height="4" transform="matrix(-1 0 0 1 44 24)" fill="black"/>
<rect width="4" height="4" transform="matrix(-1 0 0 1 40 24)" fill="black"/>
<rect width="4" height="4" transform="matrix(-1 0 0 1 60 28)" fill="#D9D9D9"/>
<rect width="4" height="4" transform="matrix(-1 0 0 1 56 28)" fill="#D9D9D9"/>
<rect width="4" height="4" transform="matrix(-1 0 0 1 56 32)" fill="#D9D9D9"/>
<rect width="4" height="4" transform="matrix(-1 0 0 1 52 28)" fill="#D9D9D9"/>
<rect width="4" height="4" transform="matrix(-1 0 0 1 48 28)" fill="#D9D9D9"/>
<rect width="4" height="4" transform="matrix(-1 0 0 1 44 28)" fill="#D9D9D9"/>
<rect width="4" height="4" transform="matrix(-1 0 0 1 40 28)" fill="#D9D9D9"/>
<rect width="4" height="4" transform="matrix(-1 0 0 1 107 32)" fill="black" fill-opacity="0.35"/>
<rect width="4" height="4" transform="matrix(-1 0 0 1 107 36)" fill="black" fill-opacity="0.35"/>
<rect width="4" height="4" transform="matrix(-1 0 0 1 103 44)" fill="black" fill-opacity="0.35"/>
<rect width="4" height="4" transform="matrix(-1 0 0 1 99 44)" fill="black" fill-opacity="0.35"/>
<rect width="5" height="3" transform="matrix(-1 0 0 1 100 48)" fill="black" fill-opacity="0.35"/>
<rect width="4" height="3" transform="matrix(-1 0 0 1 95 48)" fill="black" fill-opacity="0.35"/>
<rect width="4" height="4" transform="matrix(-1 0 0 1 94 50)" fill="black" fill-opacity="0.35"/>
<rect width="3" height="3" transform="matrix(-1 0 0 1 97 51)" fill="black" fill-opacity="0.35"/>
<rect width="4" height="4" transform="matrix(-1 0 0 1 90 50)" fill="black" fill-opacity="0.35"/>
<rect width="4" height="4" transform="matrix(-1 0 0 1 86 50)" fill="black" fill-opacity="0.35"/>
<rect width="4" height="4" transform="matrix(-1 0 0 1 82 50)" fill="black" fill-opacity="0.35"/>
<rect width="4" height="4" transform="matrix(-1 0 0 1 78 50)" fill="black" fill-opacity="0.35"/>
<rect width="4" height="4" transform="matrix(-1 0 0 1 74 50)" fill="black" fill-opacity="0.35"/>
<rect width="4" height="4" transform="matrix(-1 0 0 1 70 50)" fill="black" fill-opacity="0.35"/>
<rect width="4" height="4" transform="matrix(-1 0 0 1 66 50)" fill="black" fill-opacity="0.35"/>
<rect width="4" height="4" transform="matrix(-1 0 0 1 62 50)" fill="black" fill-opacity="0.35"/>
<rect width="4" height="4" transform="matrix(-1 0 0 1 58 50)" fill="black" fill-opacity="0.35"/>
<rect width="4" height="4" transform="matrix(-1 0 0 1 54 50)" fill="black" fill-opacity="0.35"/>
<rect width="4" height="4" transform="matrix(-1 0 0 1 50 50)" fill="black" fill-opacity="0.35"/>
<rect width="4" height="4" transform="matrix(-1 0 0 1 46 50)" fill="black" fill-opacity="0.35"/>
<rect width="4" height="4" transform="matrix(-1 0 0 1 42 50)" fill="black" fill-opacity="0.35"/>
<rect width="4" height="4" transform="matrix(-1 0 0 1 38 50)" fill="black" fill-opacity="0.35"/>
<rect width="4" height="4" transform="matrix(-1 0 0 1 34 50)" fill="black" fill-opacity="0.35"/>
<rect width="4" height="4" transform="matrix(-1 0 0 1 30 50)" fill="black" fill-opacity="0.35"/>
<rect width="4" height="4" transform="matrix(-1 0 0 1 26 50)" fill="black" fill-opacity="0.35"/>
<rect width="4" height="4" transform="matrix(-1 0 0 1 22 50)" fill="black" fill-opacity="0.35"/>
<rect width="4" height="4" transform="matrix(-1 0 0 1 18 50)" fill="black" fill-opacity="0.35"/>
<rect width="4" height="4" transform="matrix(-1 0 0 1 107 40)" fill="black" fill-opacity="0.35"/>
<rect width="4" height="4" transform="matrix(-1 0 0 1 103 40)" fill="black" fill-opacity="0.35"/>
</svg>
