<svg width="107" height="55" viewBox="0 0 107 55" fill="none" xmlns="http://www.w3.org/2000/svg">
<path d="M93.0791 3.5V4.89551H95.6143V6.52344H97.7881V7.68652H103.5V43.8486H97.7881V45.709H95.6143V46.8721H93.4414V48.5H13.7441V47.1045H11.209V45.4766H9.03516V43.8486H6.5V7.91895H9.03516V6.52344H11.209V4.89551H13.7441V3.5H93.0791Z" fill="white"/>
<path d="M97.0498 0V2.96875H100.532V6.43262H103.518V9.40234H107V42.1035H103.518V45.5674H100.532V48.5361H97.5469V52H12.9502V49.0312H9.46777V45.5674H6.48242V42.1035H3V9.40234H6.48242V6.43262H9.46777V2.96875H12.9502V0H97.0498ZM16.9502 6.96875H13.4678V10.4326H10.4824V13.4023H7V38.1035H10.4824V41.5674H13.4678V45.0312H16.9502V48H93.5469V44.5361H96.5322V41.5674H99.5176V38.1035H103V13.4023H99.5176V10.4326H96.5322V6.96875H93.0498V4H16.9502V6.96875Z" fill="black"/>
<rect x="47" y="16" width="4" height="4" fill="black"/>
<rect x="43" y="20" width="4" height="4" fill="black"/>
<rect x="39" y="24" width="4" height="4" fill="black"/>
<rect x="43" y="24" width="4" height="4" fill="black"/>
<rect x="43" y="28" width="4" height="4" fill="black"/>
<rect x="47" y="32" width="4" height="4" fill="black"/>
<rect x="47" y="24" width="4" height="4" fill="black"/>
<rect x="51" y="24" width="4" height="4" fill="black"/>
<rect x="55" y="24" width="4" height="4" fill="black"/>
<rect x="59" y="24" width="4" height="4" fill="black"/>
<rect x="63" y="24" width="4" height="4" fill="black"/>
<rect x="67" y="24" width="4" height="4" fill="black"/>
<rect x="47" y="28" width="4" height="4" fill="#D9D9D9"/>
<rect x="51" y="28" width="4" height="4" fill="#D9D9D9"/>
<rect y="33" width="4" height="4" fill="black" fill-opacity="0.35"/>
<rect y="37" width="4" height="4" fill="black" fill-opacity="0.35"/>
<rect x="4" y="45" width="4" height="4" fill="black" fill-opacity="0.35"/>
<rect x="8" y="45" width="4" height="4" fill="black" fill-opacity="0.35"/>
<rect x="7" y="49" width="5" height="3" fill="black" fill-opacity="0.35"/>
<rect x="12" y="49" width="4" height="3" fill="black" fill-opacity="0.35"/>
<rect x="13" y="51" width="4" height="4" fill="black" fill-opacity="0.35"/>
<rect x="10" y="52" width="3" height="3" fill="black" fill-opacity="0.35"/>
<rect x="17" y="51" width="4" height="4" fill="black" fill-opacity="0.35"/>
<rect x="21" y="51" width="4" height="4" fill="black" fill-opacity="0.35"/>
<rect x="25" y="51" width="4" height="4" fill="black" fill-opacity="0.35"/>
<rect x="29" y="51" width="4" height="4" fill="black" fill-opacity="0.35"/>
<rect x="33" y="51" width="4" height="4" fill="black" fill-opacity="0.35"/>
<rect x="37" y="51" width="4" height="4" fill="black" fill-opacity="0.35"/>
<rect x="41" y="51" width="4" height="4" fill="black" fill-opacity="0.35"/>
<rect x="45" y="51" width="4" height="4" fill="black" fill-opacity="0.35"/>
<rect x="49" y="51" width="4" height="4" fill="black" fill-opacity="0.35"/>
<rect x="53" y="51" width="4" height="4" fill="black" fill-opacity="0.35"/>
<rect x="57" y="51" width="4" height="4" fill="black" fill-opacity="0.35"/>
<rect x="61" y="51" width="4" height="4" fill="black" fill-opacity="0.35"/>
<rect x="65" y="51" width="4" height="4" fill="black" fill-opacity="0.35"/>
<rect x="69" y="51" width="4" height="4" fill="black" fill-opacity="0.35"/>
<rect x="73" y="51" width="4" height="4" fill="black" fill-opacity="0.35"/>
<rect x="77" y="51" width="4" height="4" fill="black" fill-opacity="0.35"/>
<rect x="81" y="51" width="4" height="4" fill="black" fill-opacity="0.35"/>
<rect x="85" y="51" width="4" height="4" fill="black" fill-opacity="0.35"/>
<rect x="89" y="51" width="4" height="4" fill="black" fill-opacity="0.35"/>
<rect y="41" width="4" height="4" fill="black" fill-opacity="0.35"/>
<rect x="4" y="41" width="4" height="4" fill="black" fill-opacity="0.35"/>
<rect x="51" y="32" width="4" height="4" fill="#D9D9D9"/>
<rect x="55" y="28" width="4" height="4" fill="#D9D9D9"/>
<rect x="59" y="28" width="4" height="4" fill="#D9D9D9"/>
<rect x="63" y="28" width="4" height="4" fill="#D9D9D9"/>
<rect x="67" y="28" width="4" height="4" fill="#D9D9D9"/>
</svg>
