<svg width="118" height="62" viewBox="0 0 118 62" fill="none" xmlns="http://www.w3.org/2000/svg">
<path d="M102.205 3.97119V5.55456H105.082V7.40163H107.548V8.72128H114.029V49.7514H107.548V51.8622H105.082V53.1818H102.616V55.0289H12.1905V53.4455H9.31403V51.5984H6.84757V49.7514H3.97115V8.98499H6.84757V7.40163H9.31403V5.55456H12.1905V3.97119H102.205Z" fill="white"/>
<path d="M106.71 0V3.36839H110.662V7.29855H114.049V10.668H118V47.7713H114.049V51.7015H110.662V55.0698H107.274V59H11.2896V55.6316H7.33844V51.7015H3.95121V47.7713H0V10.668H3.95121V7.29855H7.33844V3.36839H11.2896V0H106.71ZM15.8281 7.90685H11.8769V11.837H8.48967V15.2065H4.53846V43.2328H8.48967V47.163H11.8769V51.0932H15.8281V54.4615H102.736V50.5314H106.123V47.163H109.51V43.2328H113.462V15.2065H109.51V11.837H106.123V7.90685H102.172V4.53846H15.8281V7.90685Z" fill="black"/>
<path d="M40.576 37.264V35.224H38.464V21.688H41.512V34H46.936V21.688H50.008V35.224H47.872V37.264H40.576ZM55.0369 37.264V35.224H52.9249V31.936H55.9729V34H61.3969V31.096H55.0369V29.056H52.9249V23.752H55.0369V21.688H62.3329V23.752H64.4689V27.016H61.3969V24.976H55.9729V27.856H62.3329V29.872H64.4689V35.224H62.3329V37.264H55.0369ZM69.4979 37.264V35.224H67.3859V23.752H69.4979V21.688H76.7939V23.752H78.9299V27.016H75.8579V24.976H70.4339V27.856H74.6819V31.096H70.4339V34H75.8579V31.936H78.9299V35.224H76.7939V37.264H69.4979Z" fill="black"/>
<rect width="3" height="3" transform="matrix(-1 0 0 1 116 52)" fill="black" fill-opacity="0.35"/>
<rect width="4" height="4" transform="matrix(-1 0 0 1 113 51)" fill="black" fill-opacity="0.35"/>
<rect width="5" height="3" transform="matrix(-1 0 0 1 114 55)" fill="black" fill-opacity="0.35"/>
<rect width="4" height="3" transform="matrix(-1 0 0 1 109 55)" fill="black" fill-opacity="0.35"/>
<rect width="4" height="4" transform="matrix(-1 0 0 1 108 58)" fill="black" fill-opacity="0.35"/>
<rect width="3" height="4" transform="matrix(-1 0 0 1 111 58)" fill="black" fill-opacity="0.35"/>
<rect width="4" height="5" transform="matrix(-1 0 0 1 104 57)" fill="black" fill-opacity="0.35"/>
<rect width="4" height="5" transform="matrix(-1 0 0 1 100 57)" fill="black" fill-opacity="0.35"/>
<rect width="4" height="5" transform="matrix(-1 0 0 1 96 57)" fill="black" fill-opacity="0.35"/>
<rect width="4" height="5" transform="matrix(-1 0 0 1 92 57)" fill="black" fill-opacity="0.35"/>
<rect width="4" height="5" transform="matrix(-1 0 0 1 88 57)" fill="black" fill-opacity="0.35"/>
<rect width="4" height="5" transform="matrix(-1 0 0 1 84 57)" fill="black" fill-opacity="0.35"/>
<rect width="4" height="5" transform="matrix(-1 0 0 1 80 57)" fill="black" fill-opacity="0.35"/>
<rect width="4" height="5" transform="matrix(-1 0 0 1 76 57)" fill="black" fill-opacity="0.35"/>
<rect width="4" height="5" transform="matrix(-1 0 0 1 72 57)" fill="black" fill-opacity="0.35"/>
<rect width="4" height="5" transform="matrix(-1 0 0 1 68 57)" fill="black" fill-opacity="0.35"/>
<rect width="4" height="5" transform="matrix(-1 0 0 1 64 57)" fill="black" fill-opacity="0.35"/>
<rect width="4" height="5" transform="matrix(-1 0 0 1 60 57)" fill="black" fill-opacity="0.35"/>
<rect width="4" height="5" transform="matrix(-1 0 0 1 56 57)" fill="black" fill-opacity="0.35"/>
<rect width="4" height="5" transform="matrix(-1 0 0 1 52 57)" fill="black" fill-opacity="0.35"/>
<rect width="4" height="5" transform="matrix(-1 0 0 1 48 57)" fill="black" fill-opacity="0.35"/>
<rect width="4" height="5" transform="matrix(-1 0 0 1 44 57)" fill="black" fill-opacity="0.35"/>
<rect width="4" height="5" transform="matrix(-1 0 0 1 40 57)" fill="black" fill-opacity="0.35"/>
<rect width="4" height="5" transform="matrix(-1 0 0 1 36 57)" fill="black" fill-opacity="0.35"/>
<rect width="4" height="5" transform="matrix(-1 0 0 1 32 57)" fill="black" fill-opacity="0.35"/>
<rect width="5" height="5" transform="matrix(-1 0 0 1 118 47)" fill="black" fill-opacity="0.35"/>
<rect x="2" y="51" width="3" height="4" fill="black" fill-opacity="0.35"/>
<rect x="5" y="51" width="4" height="4" fill="black" fill-opacity="0.35"/>
<rect x="4" y="55" width="5" height="3" fill="black" fill-opacity="0.35"/>
<rect x="9" y="55" width="4" height="3" fill="black" fill-opacity="0.35"/>
<rect x="10" y="58" width="4" height="4" fill="black" fill-opacity="0.35"/>
<rect x="7" y="58" width="3" height="4" fill="black" fill-opacity="0.35"/>
<rect x="14" y="57" width="4" height="5" fill="black" fill-opacity="0.35"/>
<rect x="18" y="57" width="4" height="5" fill="black" fill-opacity="0.35"/>
<rect x="22" y="57" width="4" height="5" fill="black" fill-opacity="0.35"/>
<rect x="26" y="57" width="2" height="5" fill="black" fill-opacity="0.35"/>
<rect y="47" width="5" height="4" fill="black" fill-opacity="0.35"/>
</svg>
