<svg width="32" height="20" viewBox="0 0 32 20" fill="none" xmlns="http://www.w3.org/2000/svg">
<rect width="4" height="4" transform="matrix(1 1.74846e-07 1.74846e-07 -1 8 20)" fill="black"/>
<rect width="4" height="4" transform="matrix(1 1.74846e-07 1.74846e-07 -1 4 16)" fill="black"/>
<rect width="4" height="4" transform="matrix(1 1.74846e-07 1.74846e-07 -1 0 12)" fill="black"/>
<rect width="4" height="4" transform="matrix(1 1.74846e-07 1.74846e-07 -1 4 12)" fill="black"/>
<rect width="4" height="4" transform="matrix(1 1.74846e-07 1.74846e-07 -1 4 8)" fill="black"/>
<rect width="4" height="4" transform="matrix(1 1.74846e-07 1.74846e-07 -1 8 4)" fill="black"/>
<rect width="4" height="4" transform="matrix(1 1.74846e-07 1.74846e-07 -1 8 12)" fill="black"/>
<rect width="4" height="4" transform="matrix(1 1.74846e-07 1.74846e-07 -1 12 12)" fill="black"/>
<rect width="4" height="4" transform="matrix(1 1.74846e-07 1.74846e-07 -1 16 12)" fill="black"/>
<rect width="4" height="4" transform="matrix(1 1.74846e-07 1.74846e-07 -1 20 12)" fill="black"/>
<rect width="4" height="4" transform="matrix(1 1.74846e-07 1.74846e-07 -1 24 12)" fill="black"/>
<rect width="4" height="4" transform="matrix(1 1.74846e-07 1.74846e-07 -1 28 12)" fill="black"/>
</svg>
