<svg width="75" height="75" viewBox="0 0 75 75" fill="none" xmlns="http://www.w3.org/2000/svg">
<path d="M3.5625 66.0703H7.14844V62.5078H17.8594V69.6562H10.7109V73.2187H64.2891V69.6562H57.1406V62.5078H67.8516V66.0703H71.4375V37.5H75V33.9375H64.2891V26.7891H60.7266V33.9375H14.2969V26.7891H10.7109V33.9375H0V37.5H3.5625V66.0703ZM57.1406 37.5H67.8516V44.6484H57.1406V37.5ZM57.1406 48.2109H67.8516V58.9453H57.1406V48.2109ZM39.2813 37.5H53.5781V44.6484H39.2813V37.5ZM39.2813 48.2109H53.5781V58.9453H39.2813V48.2109ZM39.2813 62.5078H53.5781V69.6562H39.2813V62.5078ZM21.4219 37.5H35.7187V44.6484H21.4219V37.5ZM21.4219 48.2109H35.7187V58.9453H21.4219V48.2109ZM21.4219 62.5078H35.7187V69.6562H21.4219V62.5078ZM7.14844 37.5H17.8594V44.6484H7.14844V37.5ZM7.14844 48.2109H17.8594V58.9453H7.14844V48.2109Z" fill="#000001"/>
<path d="M67.8516 66.0703H64.2891V69.6562H67.8516V66.0703Z" fill="#000001"/>
<path d="M60.7266 19.6406H57.1406V26.7891H60.7266V19.6406Z" fill="#000001"/>
<path d="M57.1406 12.5156H53.5781V19.6406H57.1406V12.5156Z" fill="#000001"/>
<path d="M32.1562 12.5156V16.0781H35.7187V19.6406H39.2812V16.0781H42.8672V12.5156H53.5781V8.92969H42.8672V5.36719H39.2812V1.78125H35.7187V5.36719H32.1562V8.92969H21.4219V12.5156H32.1562Z" fill="#000001"/>
<path d="M21.4219 12.5156H17.8594V19.6406H21.4219V12.5156Z" fill="#000001"/>
<path d="M17.8594 19.6406H14.2969V26.7891H17.8594V19.6406Z" fill="#000001"/>
<path d="M10.7109 66.0703H7.14844V69.6562H10.7109V66.0703Z" fill="#000001"/>
</svg>
