<svg width="39" height="39" viewBox="0 0 39 39" fill="none" xmlns="http://www.w3.org/2000/svg">
<path d="M4.32385 39H8.67615V34.6509H13V30.3302H17.3239V26.0095H21.6761V30.3302H26V34.6509H30.3523V39H34.6761V34.6509H39V30.3302H34.6761V26.0095H30.3523V21.6604H26V17.3397H30.3523V13.019H34.6761V8.66982H39V4.34913H34.6761V0H30.3523V4.34913H26V8.66982H21.6761V13.019H17.3239V8.66982H13V4.34913H8.67615V0H4.32385V4.34913H0V8.66982H4.32385V13.019H8.67615V17.3397H13V21.6604H8.67615V26.0095H4.32385V30.3302H0V34.6509H4.32385V39Z" fill="#000001"/>
</svg>
