<svg width="32" height="32" viewBox="0 0 32 32" fill="none" xmlns="http://www.w3.org/2000/svg">
<g clip-path="url(#clip0_182_906)">
<path d="M32 6.1001H30.47V10.6701H32V6.1001Z" fill="#000001"/>
<path d="M30.47 10.6699H28.95V12.1899H30.47V10.6699Z" fill="#000001"/>
<path d="M30.47 4.57007H28.95V6.10007H30.47V4.57007Z" fill="#000001"/>
<path d="M28.95 12.1899H27.43V13.7099H28.95V12.1899Z" fill="#000001"/>
<path d="M28.95 3.05005H27.43V4.57005H28.95V3.05005Z" fill="#000001"/>
<path d="M27.43 13.71H25.9V15.24H27.43V13.71Z" fill="#000001"/>
<path d="M27.43 10.6699H25.9V12.1899H27.43V10.6699Z" fill="#000001"/>
<path d="M27.43 1.52002H25.9V3.05002H27.43V1.52002Z" fill="#000001"/>
<path d="M25.9 15.24H24.38V16.76H25.9V15.24Z" fill="#000001"/>
<path d="M25.9 9.13989H24.38V10.6699H25.9V9.13989Z" fill="#000001"/>
<path d="M24.38 16.76H22.85V18.29H24.38V16.76Z" fill="#000001"/>
<path d="M24.38 10.6699H22.85V12.1899H24.38V10.6699Z" fill="#000001"/>
<path d="M24.38 7.62012H22.85V9.14012H24.38V7.62012Z" fill="#000001"/>
<path d="M25.9 0H21.33V1.52H25.9V0Z" fill="#000001"/>
<path d="M22.85 18.29H21.33V19.81H22.85V18.29Z" fill="#000001"/>
<path d="M22.85 12.1899H21.33V13.7099H22.85V12.1899Z" fill="#000001"/>
<path d="M22.85 6.1001H21.33V7.6201H22.85V6.1001Z" fill="#000001"/>
<path d="M21.33 19.8101H19.81V21.3301H21.33V19.8101Z" fill="#000001"/>
<path d="M21.33 13.71H19.81V15.24H21.33V13.71Z" fill="#000001"/>
<path d="M21.33 7.62012H19.81V9.14012H21.33V7.62012Z" fill="#000001"/>
<path d="M21.33 4.57007H19.81V6.10007H21.33V4.57007Z" fill="#000001"/>
<path d="M21.33 1.52002H19.81V3.05002H21.33V1.52002Z" fill="#000001"/>
<path d="M19.81 21.3301H18.28V22.8601H19.81V21.3301Z" fill="#000001"/>
<path d="M19.81 15.24H18.28V16.76H19.81V15.24Z" fill="#000001"/>
<path d="M19.81 9.13989H18.28V10.6699H19.81V9.13989Z" fill="#000001"/>
<path d="M19.81 3.05005H18.28V4.57005H19.81V3.05005Z" fill="#000001"/>
<path d="M18.28 22.8601H16.76V24.3801H18.28V22.8601Z" fill="#000001"/>
<path d="M18.28 16.76H16.76V18.29H18.28V16.76Z" fill="#000001"/>
<path d="M18.28 10.6699H16.76V12.1899H18.28V10.6699Z" fill="#000001"/>
<path d="M18.28 4.57007H16.76V6.10007H18.28V4.57007Z" fill="#000001"/>
<path d="M16.76 24.3799H15.24V25.8999H16.76V24.3799Z" fill="#000001"/>
<path d="M16.76 18.29H15.24V19.81H16.76V18.29Z" fill="#000001"/>
<path d="M16.76 12.1899H15.24V13.7099H16.76V12.1899Z" fill="#000001"/>
<path d="M16.76 6.1001H15.24V7.6201H16.76V6.1001Z" fill="#000001"/>
<path d="M15.24 25.8999H13.71V27.4299H15.24V25.8999Z" fill="#000001"/>
<path d="M15.24 19.8101H13.71V21.3301H15.24V19.8101Z" fill="#000001"/>
<path d="M15.24 13.71H13.71V15.24H15.24V13.71Z" fill="#000001"/>
<path d="M15.24 7.62012H13.71V9.14012H15.24V7.62012Z" fill="#000001"/>
<path d="M13.71 27.4299H12.19V28.9499H13.71V27.4299Z" fill="#000001"/>
<path d="M13.71 21.3301H12.19V22.8601H13.71V21.3301Z" fill="#000001"/>
<path d="M13.71 15.24H12.19V16.76H13.71V15.24Z" fill="#000001"/>
<path d="M13.71 9.13989H12.19V10.6699H13.71V9.13989Z" fill="#000001"/>
<path d="M12.19 22.8601H10.66V24.3801H12.19V22.8601Z" fill="#000001"/>
<path d="M12.19 16.76H10.66V18.29H12.19V16.76Z" fill="#000001"/>
<path d="M12.19 10.6699H10.66V12.1899H12.19V10.6699Z" fill="#000001"/>
<path d="M10.66 30.4801H12.19V28.9501H10.66V24.3801H7.62V21.3301H3.05V19.8101H1.52V21.3301H0V32.0001H10.66V30.4801ZM9.14 30.4801H4.57V28.9501H3.05V27.4301H1.52V22.8601H6.09V25.9001H9.14V30.4801Z" fill="#000001"/>
<path d="M10.66 18.29H9.14001V19.81H10.66V18.29Z" fill="#000001"/>
<path d="M10.66 12.1899H9.14001V13.7099H10.66V12.1899Z" fill="#000001"/>
<path d="M9.14 19.8101H7.62V21.3301H9.14V19.8101Z" fill="#000001"/>
<path d="M9.14 13.71H7.62V15.24H9.14V13.71Z" fill="#000001"/>
<path d="M7.62003 15.24H6.09003V16.76H7.62003V15.24Z" fill="#000001"/>
<path d="M6.09001 16.76H4.57001V18.29H6.09001V16.76Z" fill="#000001"/>
<path d="M4.56999 18.29H3.04999V19.81H4.56999V18.29Z" fill="#000001"/>
</g>
<defs>
<clipPath id="clip0_182_906">
<rect width="32" height="32" fill="white"/>
</clipPath>
</defs>
</svg>
