<svg width="19" height="32" viewBox="0 0 19 32" fill="none" xmlns="http://www.w3.org/2000/svg">
<path d="M6.09 1.52V4.57H1.52V30.48H0V3.05H4.57V0H13.71V3.05H17H18.28V30.48H16.76V4.57H12.19V1.52H6.09Z" fill="#000001"/>
<path d="M16.76 30.48H1.51999V32H16.76V30.48Z" fill="#000001"/>
<path d="M14 9H3V10.53H14V9Z" fill="#000001"/>
<path d="M15.19 10H4V11.53H15.19V10Z" fill="#000001"/>
<path d="M14 14H3V15.53H14V14Z" fill="#000001"/>
<path d="M15.19 15H4V16.53H15.19V15Z" fill="#000001"/>
<path d="M14 19H3V20.53H14V19Z" fill="#000001"/>
<path d="M15.19 20H4V21.53H15.19V20Z" fill="#000001"/>
<path d="M14 24H3V25.53H14V24Z" fill="#000001"/>
<path d="M15.19 25H4V26.53H15.19V25Z" fill="#000001"/>
</svg>
