<svg width="32" height="32" viewBox="0 0 32 32" fill="none" xmlns="http://www.w3.org/2000/svg">
<path d="M30.475 7.62012H28.945V12.1901H30.475V7.62012Z" fill="#000001"/>
<path d="M28.945 12.1899H27.425V13.7099H28.945V12.1899Z" fill="#000001"/>
<path d="M28.945 6.1001H24.375V7.6201H28.945V6.1001Z" fill="#000001"/>
<path d="M22.855 13.7099V15.2399H24.375V24.3799H22.855V30.4799H21.325V16.7599H22.855V15.2399H16.755V16.7599H18.285V30.4799H15.235V15.2399H13.715V13.7099H10.665V15.2399H12.185V30.4799H10.665V24.3799H9.13499V16.7599H10.665V15.2399H7.61499V12.1899H4.56499V13.7099H6.09499V24.3799H7.61499V30.4799H9.13499V31.9999H24.375V30.4799H25.905V24.3799H27.425V13.7099H22.855Z" fill="#000001"/>
<path d="M25.905 10.6699H24.375V12.1899H25.905V10.6699Z" fill="#000001"/>
<path d="M24.375 7.62012H22.855V9.14012H24.375V7.62012Z" fill="#000001"/>
<path d="M22.855 4.57007H21.325V7.62007H22.855V4.57007Z" fill="#000001"/>
<path d="M21.325 9.13989H19.805V10.6699H21.325V9.13989Z" fill="#000001"/>
<path d="M21.325 3.05005H19.805V4.57005H21.325V3.05005Z" fill="#000001"/>
<path d="M19.805 1.52002H16.755V3.05002H19.805V1.52002Z" fill="#000001"/>
<path d="M19.805 10.6699H16.755V12.1899H19.805V10.6699Z" fill="#000001"/>
<path d="M16.755 13.71H15.235V15.24H16.755V13.71Z" fill="#000001"/>
<path d="M16.755 9.13989H15.235V10.6699H16.755V9.13989Z" fill="#000001"/>
<path d="M16.755 3.05005H15.235V4.57005H16.755V3.05005Z" fill="#000001"/>
<path d="M15.235 1.52002H13.715V3.05002H15.235V1.52002Z" fill="#000001"/>
<path d="M12.185 6.1001H10.665V7.6201H12.185V6.1001Z" fill="#000001"/>
<path d="M13.715 0H9.13499V1.52H13.715V0Z" fill="#000001"/>
<path d="M10.665 10.6699H9.13499V12.1899H10.665V10.6699Z" fill="#000001"/>
<path d="M10.665 4.57007H7.61499V6.10007H10.665V4.57007Z" fill="#000001"/>
<path d="M9.135 1.52002H6.095V3.05002H9.135V1.52002Z" fill="#000001"/>
<path d="M7.615 6.1001H6.095V7.6201H7.615V6.1001Z" fill="#000001"/>
<path d="M6.095 3.05005H3.045V4.57005H6.095V3.05005Z" fill="#000001"/>
<path d="M4.565 9.13989H3.045V12.1899H4.565V9.13989Z" fill="#000001"/>
<path d="M3.04499 4.57007H1.52499V9.14007H3.04499V4.57007Z" fill="#000001"/>
</svg>
