<svg width="32" height="32" viewBox="0 0 32 32" fill="none" xmlns="http://www.w3.org/2000/svg">
<g clip-path="url(#clip0_142_161)">
<path d="M32 6.1001H30.47V32.0001H32V6.1001Z" fill="#000001"/>
<path d="M30.47 4.57007H28.95V6.10007H30.47V4.57007Z" fill="#000001"/>
<path d="M28.95 3.05005H27.42V4.57005H28.95V3.05005Z" fill="#000001"/>
<path d="M27.42 1.52002H25.9V3.05002H27.42V1.52002Z" fill="#000001"/>
<path d="M3.04 0V6.1H4.57V7.62H6.09V21.33H4.57V22.86H3.04V24.38H1.52V25.9H21.33V32H22.85V24.38H24.38V22.86H25.9V21.33H27.42V7.62H25.9V6.1H24.38V1.52H25.9V0H3.04ZM10.66 1.52H22.85V4.57H10.66V1.52ZM7.61 1.52H9.14V4.57H7.61V1.52ZM4.57 4.57V1.52H6.09V4.57H4.57ZM9.14 22.86H7.61V24.38H6.09V22.86H7.61V21.33H9.14V22.86ZM13.71 22.86H12.19V24.38H10.66V22.86H12.19V21.33H13.71V22.86ZM21.33 24.38H16.76V22.86H21.33V24.38ZM22.85 19.81H10.66V10.67H22.85V19.81ZM24.38 9.14H7.61V7.62H24.38V9.14Z" fill="#000001"/>
<path d="M21.33 15.24H19.8V16.76H21.33V15.24Z" fill="#000001"/>
<path d="M19.8 12.1899H18.28V13.7099H19.8V12.1899Z" fill="#000001"/>
<path d="M19.8 32V28.95H15.23V32H16.76V30.4799H18.28V32H19.8Z" fill="#000001"/>
<path d="M19.8 16.76H13.71V18.29H19.8V16.76Z" fill="#000001"/>
<path d="M15.23 12.1899H13.71V13.7099H15.23V12.1899Z" fill="#000001"/>
<path d="M13.71 15.24H12.19V16.76H13.71V15.24Z" fill="#000001"/>
<path d="M1.52 25.8999H0V31.9999H1.52V25.8999Z" fill="#000001"/>
</g>
<defs>
<clipPath id="clip0_142_161">
<rect width="32" height="32" fill="white"/>
</clipPath>
</defs>
</svg>
