<svg width="32" height="25" viewBox="0 0 32 25" fill="none" xmlns="http://www.w3.org/2000/svg">
<path d="M30.47 15.2399H28.95V13.7099H27.42V15.2399H25.9V16.7599H22.85V15.2399H21.33V13.7099H16.76V15.2399H13.71V16.7599H9.13999V15.2399H7.60999V13.7099H3.03999V15.2399H1.51999V16.7599H3.03999V21.3299H4.56999V18.2799H27.42V21.3299H28.95V18.2799H30.47V16.7599H32V12.1899H30.47V15.2399Z" fill="#000001"/>
<path d="M27.42 21.3301H25.9V22.8601H27.42V21.3301Z" fill="#000001"/>
<path d="M27.42 4.57007H25.9V6.09007H27.42V4.57007Z" fill="#000001"/>
<path d="M25.9 3.05005H24.38V4.57005H25.9V3.05005Z" fill="#000001"/>
<path d="M25.9 22.8601H6.09V24.3801H25.9V22.8601Z" fill="#000001"/>
<path d="M22.85 4.57007H21.33V6.09007H22.85V4.57007Z" fill="#000001"/>
<path d="M24.38 1.52002H21.33V3.05002H24.38V1.52002Z" fill="#000001"/>
<path d="M19.81 6.09009H18.28V7.62009H19.81V6.09009Z" fill="#000001"/>
<path d="M19.81 3.05005H18.28V4.57005H19.81V3.05005Z" fill="#000001"/>
<path d="M16.76 4.57007H15.23V6.09007H16.76V4.57007Z" fill="#000001"/>
<path d="M13.71 6.09009H12.19V7.62009H13.71V6.09009Z" fill="#000001"/>
<path d="M13.71 3.05005H12.19V4.57005H13.71V3.05005Z" fill="#000001"/>
<path d="M21.33 0H10.66V1.52H21.33V0Z" fill="#000001"/>
<path d="M10.66 4.57007H9.14001V6.09007H10.66V4.57007Z" fill="#000001"/>
<path d="M10.66 1.52002H7.60999V3.05002H10.66V1.52002Z" fill="#000001"/>
<path d="M7.61 3.05005H6.09V4.57005H7.61V3.05005Z" fill="#000001"/>
<path d="M6.09001 21.3301H4.57001V22.8601H6.09001V21.3301Z" fill="#000001"/>
<path d="M6.09001 4.57007H4.57001V6.09007H6.09001V4.57007Z" fill="#000001"/>
<path d="M30.47 12.1901V10.6601H28.95V6.09009H27.42V10.6601H4.56999V6.09009H3.03999V10.6601H1.51999V12.1901H30.47Z" fill="#000001"/>
<path d="M1.52 12.1899H0V15.2399H1.52V12.1899Z" fill="#000001"/>
</svg>
