<svg width="14" height="32" viewBox="0 0 14 32" fill="none" xmlns="http://www.w3.org/2000/svg">
<path d="M13.72 15.23H12.19V24.38H13.72V15.23Z" fill="#000001"/>
<path d="M12.19 13.71H10.67V15.23H12.19V13.71Z" fill="#000001"/>
<path d="M12.19 3.04004H10.67V9.14004H12.19V3.04004Z" fill="#000001"/>
<path d="M10.67 18.28H9.13999V30.47H7.61999V24.38H6.09999V30.47H4.56999V18.28H3.04999V24.38H1.51999V25.9H3.04999V32H10.67V25.9H12.19V24.38H10.67V18.28Z" fill="#000001"/>
<path d="M10.67 12.1899H9.14001V13.7099H10.67V12.1899Z" fill="#000001"/>
<path d="M10.67 9.13989H9.14001V10.6599H10.67V9.13989Z" fill="#000001"/>
<path d="M10.67 1.52002H9.14001V3.04002H10.67V1.52002Z" fill="#000001"/>
<path d="M9.14001 10.6599H4.57001V12.1899H9.14001V10.6599Z" fill="#000001"/>
<path d="M9.14001 0H4.57001V1.52H9.14001V0Z" fill="#000001"/>
<path d="M4.56999 12.1899H3.04999V13.7099H4.56999V12.1899Z" fill="#000001"/>
<path d="M4.56999 9.13989H3.04999V10.6599H4.56999V9.13989Z" fill="#000001"/>
<path d="M4.56999 1.52002H3.04999V3.04002H4.56999V1.52002Z" fill="#000001"/>
<path d="M3.04999 13.71H1.51999V15.23H3.04999V13.71Z" fill="#000001"/>
<path d="M3.04999 3.04004H1.51999V9.14004H3.04999V3.04004Z" fill="#000001"/>
<path d="M1.52 15.23H0V24.38H1.52V15.23Z" fill="#000001"/>
</svg>
