<svg width="32" height="32" viewBox="0 0 32 32" fill="none" xmlns="http://www.w3.org/2000/svg">
<g clip-path="url(#clip0_142_60)">
<path d="M31.235 22.095H29.715V28.195H31.235V22.095Z" fill="#000001"/>
<path d="M29.715 28.1948H28.195V29.7148H29.715V28.1948Z" fill="#000001"/>
<path d="M29.715 16.0049H28.195V20.5749H29.715V16.0049Z" fill="#000001"/>
<path d="M29.715 3.80493H28.195V5.33493H29.715V3.80493Z" fill="#000001"/>
<path d="M28.195 20.575H26.665V22.0949H28.195V20.575Z" fill="#000001"/>
<path d="M28.195 14.4749H26.665V16.0049H28.195V14.4749Z" fill="#000001"/>
<path d="M28.195 5.33496H26.665V6.85496H28.195V5.33496Z" fill="#000001"/>
<path d="M28.195 29.7148H3.815V31.2348H28.195V29.7148Z" fill="#000001"/>
<path d="M26.665 17.5249H25.145V19.0449H26.665V17.5249Z" fill="#000001"/>
<path d="M26.665 3.80493H25.145V5.33493H26.665V3.80493Z" fill="#000001"/>
<path d="M25.145 19.0449H22.095V20.5749H25.145V19.0449Z" fill="#000001"/>
<path d="M25.145 16.0049H23.625V17.5249H25.145V16.0049Z" fill="#000001"/>
<path d="M26.665 12.9548H22.095V14.4748H26.665V12.9548Z" fill="#000001"/>
<path d="M26.665 22.095H22.095V23.615H26.665V22.095Z" fill="#000001"/>
<path d="M25.145 9.90479H22.095V11.4248H25.145V9.90479Z" fill="#000001"/>
<path d="M22.095 20.575H20.575V22.0949H22.095V20.575Z" fill="#000001"/>
<path d="M22.095 14.4749H20.575V19.0449H22.095V14.4749Z" fill="#000001"/>
<path d="M22.095 6.85498H20.575V9.90498H22.095V6.85498Z" fill="#000001"/>
<path d="M20.575 5.33496H19.045V6.85496H20.575V5.33496Z" fill="#000001"/>
<path d="M19.045 3.80493H17.525V5.33493H19.045V3.80493Z" fill="#000001"/>
<path d="M20.575 25.1448H16.005V26.6648H20.575V25.1448Z" fill="#000001"/>
<path d="M17.525 2.28491H16.005V3.80491H17.525V2.28491Z" fill="#000001"/>
<path d="M16.005 23.615H14.475V25.145H16.005V23.615Z" fill="#000001"/>
<path d="M16.005 16.0049H14.475V20.5749H16.005V16.0049Z" fill="#000001"/>
<path d="M16.005 0.764893H14.475V2.28489H16.005V0.764893Z" fill="#000001"/>
<path d="M14.475 20.575H12.955V22.0949H14.475V20.575Z" fill="#000001"/>
<path d="M14.475 14.4749H12.955V16.0049H14.475V14.4749Z" fill="#000001"/>
<path d="M14.475 2.28491H12.955V6.85491H14.475V2.28491Z" fill="#000001"/>
<path d="M12.955 17.5249H11.435V19.0449H12.955V17.5249Z" fill="#000001"/>
<path d="M12.955 12.9548H8.38499V14.4748H12.955V12.9548Z" fill="#000001"/>
<path d="M12.955 6.85498H11.435V8.38498H9.905V9.90498H12.955V6.85498Z" fill="#000001"/>
<path d="M11.435 16.0049H9.905V17.5249H11.435V16.0049Z" fill="#000001"/>
<path d="M11.435 0.764893H9.905V2.28489H11.435V0.764893Z" fill="#000001"/>
<path d="M11.435 19.0449H8.38499V20.5749H11.435V19.0449Z" fill="#000001"/>
<path d="M9.905 9.90479H6.855V11.4248H9.905V9.90479Z" fill="#000001"/>
<path d="M9.90499 2.28491H8.38499V3.80491H9.90499V2.28491Z" fill="#000001"/>
<path d="M12.955 22.095H6.855V23.615H12.955V22.095Z" fill="#000001"/>
<path d="M8.385 14.4749H6.855V19.0449H8.385V14.4749Z" fill="#000001"/>
<path d="M8.385 0.764893H6.855V2.28489H8.385V0.764893Z" fill="#000001"/>
<path d="M6.85501 20.575H5.33501V22.0949H6.85501V20.575Z" fill="#000001"/>
<path d="M6.85501 11.4248H5.33501V12.9548H6.85501V11.4248Z" fill="#000001"/>
<path d="M6.85501 5.33496H5.33501V6.85496H6.85501V5.33496Z" fill="#000001"/>
<path d="M5.335 12.9548H3.815V17.5248H5.335V12.9548Z" fill="#000001"/>
<path d="M5.335 6.85498H3.815V8.38498H5.335V6.85498Z" fill="#000001"/>
<path d="M3.815 28.1948H2.285V29.7148H3.815V28.1948Z" fill="#000001"/>
<path d="M3.815 23.615H2.285V25.145H3.815V23.615Z" fill="#000001"/>
<path d="M3.815 17.5249H2.285V19.0449H3.815V17.5249Z" fill="#000001"/>
<path d="M3.815 5.33496H2.285V6.85496H3.815V5.33496Z" fill="#000001"/>
<path d="M2.285 25.1448H0.764999V28.1948H2.285V25.1448Z" fill="#000001"/>
<path d="M2.285 19.0449H0.764999V23.6149H2.285V19.0449Z" fill="#000001"/>
</g>
<defs>
<clipPath id="clip0_142_60">
<rect width="32" height="32" fill="white"/>
</clipPath>
</defs>
</svg>
