<svg width="36" height="36" viewBox="0 0 36 36" fill="none" xmlns="http://www.w3.org/2000/svg">
<path d="M0.860596 18.855H4.2806V17.145H6.00185V15.4238H7.71185V13.7137H9.4331V12.0038H11.1431V10.2825H12.8531V8.5725H14.5743V6.85125H16.2843V5.14125H19.7156V6.85125H21.4256V8.5725H23.1468V10.2825H24.8568V12.0038H26.5668V13.7137H28.2881V15.4238H29.9981V17.145H31.7081V18.855H35.1393V15.4238H33.4293V13.7137H31.7081V12.0038H29.9981V10.2825H28.2881V8.5725H26.5668V6.85125H24.8568V5.14125H23.1468V3.43125H21.4256V1.71H19.7156V0H16.2843V1.71H14.5743V3.43125H12.8531V5.14125H11.1431V6.85125H9.4331V8.5725H7.71185V10.2825H6.00185V12.0038H4.2806V13.7137H2.5706V15.4238H0.860596V18.855Z" fill="#000001"/>
<path d="M29.998 34.2899H23.1468V25.7174H21.4255V35.9999H31.708V20.5649H29.998V34.2899Z" fill="#000001"/>
<path d="M29.9981 18.855H28.2881V20.565H29.9981V18.855Z" fill="#000001"/>
<path d="M28.2881 17.145H26.5669V18.855H28.2881V17.145Z" fill="#000001"/>
<path d="M26.5668 15.4238H24.8568V17.1451H26.5668V15.4238Z" fill="#000001"/>
<path d="M24.8568 13.7139H23.1469V15.4239H24.8568V13.7139Z" fill="#000001"/>
<path d="M23.1468 12.0037H21.4255V13.7137H23.1468V12.0037Z" fill="#000001"/>
<path d="M21.4256 23.9963H19.7156V25.7176H21.4256V23.9963Z" fill="#000001"/>
<path d="M21.4256 10.2825H19.7156V12.0037H21.4256V10.2825Z" fill="#000001"/>
<path d="M19.7156 22.2861H16.2843V23.9961H19.7156V22.2861Z" fill="#000001"/>
<path d="M19.7156 8.57251H16.2843V10.2825H19.7156V8.57251Z" fill="#000001"/>
<path d="M16.2843 23.9963H14.5743V25.7176H16.2843V23.9963Z" fill="#000001"/>
<path d="M16.2843 10.2825H14.5743V12.0037H16.2843V10.2825Z" fill="#000001"/>
<path d="M14.5744 25.7174H12.8531V34.2899H6.00189V20.5649H4.28064V35.9999H14.5744V25.7174Z" fill="#000001"/>
<path d="M14.5744 12.0037H12.8531V13.7137H14.5744V12.0037Z" fill="#000001"/>
<path d="M12.8531 13.7139H11.1431V15.4239H12.8531V13.7139Z" fill="#000001"/>
<path d="M11.1431 15.4238H9.43311V17.1451H11.1431V15.4238Z" fill="#000001"/>
<path d="M9.43304 17.145H7.71179V18.855H9.43304V17.145Z" fill="#000001"/>
<path d="M7.71183 18.855H6.00183V20.565H7.71183V18.855Z" fill="#000001"/>
</svg>
