<svg width="35" height="70" viewBox="0 0 35 70" fill="none" xmlns="http://www.w3.org/2000/svg">
<rect x="25" width="5" height="5" fill="#D38600"/>
<rect x="30" width="5" height="5" fill="#D38600"/>
<rect x="25" y="5" width="5" height="5" fill="#D38600"/>
<rect x="20" y="5" width="5" height="5" fill="#D38600"/>
<rect x="20" y="60" width="5" height="5" fill="#D38600"/>
<rect x="25" y="60" width="5" height="5" fill="#D38600"/>
<rect x="30" y="60" width="5" height="5" fill="#D38600"/>
<rect x="25" y="65" width="5" height="5" fill="#D38600"/>
<rect x="30" y="65" width="5" height="5" fill="#D38600"/>
<rect x="15" y="5" width="5" height="5" fill="#D38600"/>
<rect x="20" y="10" width="5" height="5" fill="#D38600"/>
<rect x="15" y="10" width="5" height="5" fill="#D38600"/>
<rect x="5" y="15" width="5" height="5" fill="#D38600"/>
<rect x="5" y="20" width="5" height="5" fill="#D38600"/>
<rect y="25" width="5" height="5" fill="#D38600"/>
<rect y="30" width="5" height="5" fill="#D38600"/>
<rect y="35" width="5" height="5" fill="#D38600"/>
<rect y="40" width="5" height="5" fill="#D38600"/>
<rect x="5" y="25" width="5" height="5" fill="#D38600"/>
<rect x="5" y="30" width="5" height="5" fill="#D38600"/>
<rect x="5" y="35" width="5" height="5" fill="#D38600"/>
<rect x="5" y="40" width="5" height="5" fill="#D38600"/>
<rect x="5" y="45" width="5" height="5" fill="#D38600"/>
<rect x="5" y="50" width="5" height="5" fill="#D38600"/>
<rect x="10" y="45" width="5" height="5" fill="#D38600"/>
<rect x="10" y="50" width="5" height="5" fill="#D38600"/>
<rect x="10" y="55" width="5" height="5" fill="#D38600"/>
<rect x="15" y="55" width="5" height="5" fill="#D38600"/>
<rect x="15" y="60" width="5" height="5" fill="#D38600"/>
<rect x="20" y="55" width="5" height="5" fill="#D38600"/>
<rect x="10" y="15" width="5" height="5" fill="#D38600"/>
<rect x="10" y="20" width="5" height="5" fill="#D38600"/>
<rect x="10" y="10" width="5" height="5" fill="#D38600"/>
<rect x="30" y="5" width="5" height="5" fill="#D38600"/>
</svg>
