<svg width="35" height="35" viewBox="0 0 35 35" fill="none" xmlns="http://www.w3.org/2000/svg">
<rect x="25" width="5" height="5" fill="#D00A0A"/>
<rect x="30" width="5" height="5" fill="#D00A0A"/>
<rect x="25" y="5" width="5" height="5" fill="#D00A0A"/>
<rect x="20" y="5" width="5" height="5" fill="#D00A0A"/>
<rect x="15" y="5" width="5" height="5" fill="#D00A0A"/>
<rect x="20" y="10" width="5" height="5" fill="#D00A0A"/>
<rect x="15" y="10" width="5" height="5" fill="#D00A0A"/>
<rect x="5" y="15" width="5" height="5" fill="#D00A0A"/>
<rect x="5" y="20" width="5" height="5" fill="#D00A0A"/>
<rect y="25" width="5" height="5" fill="#D00A0A"/>
<rect y="30" width="5" height="5" fill="#D00A0A"/>
<rect x="5" y="25" width="5" height="5" fill="#D00A0A"/>
<rect x="5" y="30" width="5" height="5" fill="#D00A0A"/>
<rect x="10" y="15" width="5" height="5" fill="#D00A0A"/>
<rect x="10" y="20" width="5" height="5" fill="#D00A0A"/>
<rect x="10" y="10" width="5" height="5" fill="#D00A0A"/>
<rect x="30" y="5" width="5" height="5" fill="#D00A0A"/>
</svg>
