<svg width="70" height="70" viewBox="0 0 70 70" fill="none" xmlns="http://www.w3.org/2000/svg">
<rect x="25" width="5" height="5" fill="#D0B90A"/>
<rect x="30" width="5" height="5" fill="#D0B90A"/>
<rect x="25" y="5" width="5" height="5" fill="#D0B90A"/>
<rect x="20" y="5" width="5" height="5" fill="#D0B90A"/>
<rect x="20" y="60" width="5" height="5" fill="#D0B90A"/>
<rect x="25" y="60" width="5" height="5" fill="#D0B90A"/>
<rect x="30" y="60" width="5" height="5" fill="#D0B90A"/>
<rect x="35" y="60" width="5" height="5" fill="#D0B90A"/>
<rect x="40" y="60" width="5" height="5" fill="#D0B90A"/>
<rect x="45" y="60" width="5" height="5" fill="#D0B90A"/>
<rect x="25" y="65" width="5" height="5" fill="#D0B90A"/>
<rect x="30" y="65" width="5" height="5" fill="#D0B90A"/>
<rect x="35" y="65" width="5" height="5" fill="#D0B90A"/>
<rect x="40" y="65" width="5" height="5" fill="#D0B90A"/>
<rect x="15" y="5" width="5" height="5" fill="#D0B90A"/>
<rect x="20" y="10" width="5" height="5" fill="#D0B90A"/>
<rect x="15" y="10" width="5" height="5" fill="#D0B90A"/>
<rect x="5" y="15" width="5" height="5" fill="#D0B90A"/>
<rect x="5" y="20" width="5" height="5" fill="#D0B90A"/>
<rect y="25" width="5" height="5" fill="#D0B90A"/>
<rect y="30" width="5" height="5" fill="#D0B90A"/>
<rect y="35" width="5" height="5" fill="#D0B90A"/>
<rect y="40" width="5" height="5" fill="#D0B90A"/>
<rect x="5" y="25" width="5" height="5" fill="#D0B90A"/>
<rect x="5" y="30" width="5" height="5" fill="#D0B90A"/>
<rect x="5" y="35" width="5" height="5" fill="#D0B90A"/>
<rect x="5" y="40" width="5" height="5" fill="#D0B90A"/>
<rect x="5" y="45" width="5" height="5" fill="#D0B90A"/>
<rect x="5" y="50" width="5" height="5" fill="#D0B90A"/>
<rect x="10" y="45" width="5" height="5" fill="#D0B90A"/>
<rect x="10" y="50" width="5" height="5" fill="#D0B90A"/>
<rect x="10" y="55" width="5" height="5" fill="#D0B90A"/>
<rect x="15" y="55" width="5" height="5" fill="#D0B90A"/>
<rect x="15" y="60" width="5" height="5" fill="#D0B90A"/>
<rect x="20" y="55" width="5" height="5" fill="#D0B90A"/>
<rect x="10" y="15" width="5" height="5" fill="#D0B90A"/>
<rect x="10" y="20" width="5" height="5" fill="#D0B90A"/>
<rect x="10" y="10" width="5" height="5" fill="#D0B90A"/>
<rect x="55" y="65" width="5" height="5" transform="rotate(180 55 65)" fill="#D0B90A"/>
<rect x="50" y="60" width="5" height="5" transform="rotate(180 50 60)" fill="#D0B90A"/>
<rect x="55" y="60" width="5" height="5" transform="rotate(180 55 60)" fill="#D0B90A"/>
<rect x="65" y="55" width="5" height="5" transform="rotate(180 65 55)" fill="#D0B90A"/>
<rect x="65" y="50" width="5" height="5" transform="rotate(180 65 50)" fill="#D0B90A"/>
<rect x="70" y="45" width="5" height="5" transform="rotate(180 70 45)" fill="#D0B90A"/>
<rect x="70" y="40" width="5" height="5" transform="rotate(180 70 40)" fill="#D0B90A"/>
<rect x="65" y="45" width="5" height="5" transform="rotate(180 65 45)" fill="#D0B90A"/>
<rect x="65" y="40" width="5" height="5" transform="rotate(180 65 40)" fill="#D0B90A"/>
<rect x="60" y="55" width="5" height="5" transform="rotate(180 60 55)" fill="#D0B90A"/>
<rect x="60" y="50" width="5" height="5" transform="rotate(180 60 50)" fill="#D0B90A"/>
<rect x="60" y="60" width="5" height="5" transform="rotate(180 60 60)" fill="#D0B90A"/>
<rect x="30" y="5" width="5" height="5" fill="#D0B90A"/>
</svg>
