<svg width="32" height="32" viewBox="0 0 32 32" fill="none" xmlns="http://www.w3.org/2000/svg">
<g clip-path="url(#clip0_142_129)">
<path d="M22.85 7.6201V10.6701H21.33V15.2401H22.85V16.7601H24.38V18.2901H19.81V19.8101H18.28V21.3301H22.85V24.3801H21.33V27.4301H22.85V28.9501H25.9V27.4301H27.43V25.9001H28.95V22.8601H30.47V19.8101H32V12.1901H30.47V9.1401H28.95V6.1001H27.43V7.6201H22.85Z" fill="#000001"/>
<path d="M27.43 4.57007H25.9V6.10007H27.43V4.57007Z" fill="#000001"/>
<path d="M25.9 3.05005H22.85V4.57005H25.9V3.05005Z" fill="#000001"/>
<path d="M22.85 28.95H19.81V30.4799H22.85V28.95Z" fill="#000001"/>
<path d="M22.85 1.52002H19.81V3.05002H22.85V1.52002Z" fill="#000001"/>
<path d="M16.76 28.9499H15.24V27.4299H10.66V28.9499H9.14V30.4799H12.19V31.9999H19.81V30.4799H16.76V28.9499Z" fill="#000001"/>
<path d="M19.81 0H12.19V1.52H19.81V0Z" fill="#000001"/>
<path d="M10.66 16.76H12.19V18.29H13.71V13.71H10.66V16.76Z" fill="#000001"/>
<path d="M9.14 27.4299H6.09V28.9499H9.14V27.4299Z" fill="#000001"/>
<path d="M6.09001 25.8999H4.57001V27.4299H6.09001V25.8999Z" fill="#000001"/>
<path d="M3.05 22.86V25.9H4.57V24.38H6.09V22.86H7.62V18.29H6.09V16.76H4.57V15.24H3.05V13.71H4.57V12.19H9.14V10.67H10.66V9.14002H12.19V10.67H13.71V9.14002H15.24V6.10002H13.71V4.57002H10.66V3.05002H12.19V1.52002H9.14V3.05002H6.09V4.57002H4.57V6.10002H3.05V9.14002H1.52V12.19H0V19.81H1.52V22.86H3.05Z" fill="#000001"/>
</g>
<defs>
<clipPath id="clip0_142_129">
<rect width="32" height="32" fill="white"/>
</clipPath>
</defs>
</svg>
