<svg width="32" height="32" viewBox="0 0 32 32" fill="none" xmlns="http://www.w3.org/2000/svg">
<g clip-path="url(#clip0_142_142)">
<path d="M27.43 15.2399V12.1899H25.91V19.8099H27.43V16.7599H32V15.2399H27.43Z" fill="#000001"/>
<path d="M25.91 19.8101H24.38V22.8601H25.91V19.8101Z" fill="#000001"/>
<path d="M25.91 9.13989H24.38V12.1899H25.91V9.13989Z" fill="#000001"/>
<path d="M24.38 22.8601H22.86V24.3801H24.38V22.8601Z" fill="#000001"/>
<path d="M24.38 7.62012H22.86V9.14012H24.38V7.62012Z" fill="#000001"/>
<path d="M22.86 24.3799H19.81V25.9099H22.86V24.3799Z" fill="#000001"/>
<path d="M21.34 10.6699H18.29V9.13989H13.72V10.6699H10.67V13.7099H9.14V18.2899H10.67V21.3299H13.72V22.8599H18.29V21.3299H21.34V18.2899H22.86V13.7099H21.34V10.6699ZM16.76 13.7099H18.29V15.2399H16.76V13.7099ZM13.72 13.7099H15.24V15.2399H13.72V13.7099ZM19.81 18.2899H18.29V19.8099H13.72V18.2899H12.19V16.7599H13.72V18.2899H18.29V16.7599H19.81V18.2899Z" fill="#000001"/>
<path d="M22.86 6.1001H19.81V7.6201H22.86V6.1001Z" fill="#000001"/>
<path d="M12.19 25.9099V27.4299H15.24V31.9999H16.76V27.4299H19.81V25.9099H12.19Z" fill="#000001"/>
<path d="M19.81 6.1V4.57H16.76V0H15.24V4.57H12.19V6.1H19.81Z" fill="#000001"/>
<path d="M12.19 24.3799H9.14V25.9099H12.19V24.3799Z" fill="#000001"/>
<path d="M12.19 6.1001H9.14V7.6201H12.19V6.1001Z" fill="#000001"/>
<path d="M9.14 22.8601H7.62V24.3801H9.14V22.8601Z" fill="#000001"/>
<path d="M9.14 7.62012H7.62V9.14012H9.14V7.62012Z" fill="#000001"/>
<path d="M7.62001 19.8101H6.10001V22.8601H7.62001V19.8101Z" fill="#000001"/>
<path d="M7.62001 9.13989H6.10001V12.1899H7.62001V9.13989Z" fill="#000001"/>
<path d="M6.1 12.1899H4.57V15.2399H0V16.7599H4.57V19.8099H6.1V12.1899Z" fill="#000001"/>
</g>
<defs>
<clipPath id="clip0_142_142">
<rect width="32" height="32" fill="white"/>
</clipPath>
</defs>
</svg>
