<svg width="75" height="75" viewBox="0 0 75 75" fill="none" xmlns="http://www.w3.org/2000/svg">
<path d="M71.4258 14.2969H67.8398V28.5703H71.4258V14.2969Z" fill="#000001"/>
<path d="M67.8398 28.5703H64.2773V39.2813H67.8398V28.5703Z" fill="#000001"/>
<path d="M64.2773 39.2812H60.7148V53.5781H64.2773V39.2812Z" fill="#000001"/>
<path d="M60.7148 53.5781H57.1289V67.8516H60.7148V53.5781Z" fill="#000001"/>
<path d="M53.5664 14.2969H67.8398V10.7109H53.5664V3.5625H49.9805V71.4375H57.1289V67.8516H53.5664V14.2969Z" fill="#000001"/>
<path d="M49.9805 71.4375H7.13672V75H49.9805V71.4375Z" fill="#000001"/>
<path d="M46.418 60.7031H42.8555V67.8516H46.418V60.7031Z" fill="#000001"/>
<path d="M32.1445 21.4219H24.9961V28.5703H17.8477V35.7187H24.9961V39.2812H21.4102V42.8672H35.707V39.2812H32.1445V35.7187H39.2695V28.5703H32.1445V21.4219Z" fill="#000001"/>
<path d="M14.2852 7.14844H10.6992V14.2969H14.2852V7.14844Z" fill="#000001"/>
<path d="M49.9805 0H7.13672V3.5625H49.9805V0Z" fill="#000001"/>
<path d="M7.13672 3.5625H3.57422V71.4375H7.13672V3.5625Z" fill="#000001"/>
</svg>
