<svg width="75" height="75" viewBox="0 0 75 75" fill="none" xmlns="http://www.w3.org/2000/svg">
<path d="M75 17.8477H71.4375V39.293H75V17.8477Z" fill="#000001"/>
<path d="M71.4375 14.2852H67.875V17.8477H71.4375V14.2852Z" fill="#000001"/>
<path d="M67.875 50.0039H64.2891V53.5664H67.875V50.0039Z" fill="#000001"/>
<path d="M64.2891 42.8555H67.875V50.0039H71.4375V39.293H64.2891V42.8555Z" fill="#000001"/>
<path d="M67.875 10.6992H64.2891V14.2852H67.875V10.6992Z" fill="#000001"/>
<path d="M64.2891 53.5664H60.7266V71.4258H64.2891V53.5664Z" fill="#000001"/>
<path d="M64.2891 42.8555H60.7266V46.418H64.2891V42.8555Z" fill="#000001"/>
<path d="M64.2891 35.707H57.1641V39.293H64.2891V35.707Z" fill="#000001"/>
<path d="M64.2891 17.8477H60.7266V21.4336H57.1641V17.8477H53.5781V21.4336H50.0156V24.9961H53.5781V28.5586H57.1641V32.1445H60.7266V28.5586H64.2891V24.9961H67.875V21.4336H64.2891V17.8477Z" fill="#000001"/>
<path d="M64.2891 7.13672H57.1641V10.6992H64.2891V7.13672Z" fill="#000001"/>
<path d="M57.1641 60.7148H53.5781V71.4258H57.1641V60.7148Z" fill="#000001"/>
<path d="M57.1641 53.5664H53.5781V57.1289H57.1641V53.5664Z" fill="#000001"/>
<path d="M60.7266 46.418H53.5781V50.0039H60.7266V46.418Z" fill="#000001"/>
<path d="M57.1641 39.293H53.5781V42.8555H57.1641V39.293Z" fill="#000001"/>
<path d="M53.5781 35.707H50.0156V39.293H53.5781V35.707Z" fill="#000001"/>
<path d="M53.5781 57.1289H46.4297V60.7148H53.5781V57.1289Z" fill="#000001"/>
<path d="M32.1563 50.0039V46.418H28.5938V50.0039H10.7344V53.5664H42.8672V57.1289H46.4297V53.5664H53.5781V50.0039H32.1563Z" fill="#000001"/>
<path d="M50.0156 42.8555H46.4297V46.418H50.0156V42.8555Z" fill="#000001"/>
<path d="M50.0156 10.6992H46.4297V17.8477H50.0156V10.6992Z" fill="#000001"/>
<path d="M42.8672 39.293H39.3047V42.8555H42.8672V39.293Z" fill="#000001"/>
<path d="M42.8672 10.6992H39.3047V14.2852H42.8672V10.6992Z" fill="#000001"/>
<path d="M39.3047 42.8555H32.1562V46.418H39.3047V42.8555Z" fill="#000001"/>
<path d="M39.3047 28.5586H35.7188V32.1445H39.3047V28.5586Z" fill="#000001"/>
<path d="M39.3047 14.2852H32.1562V17.8477H39.3047V14.2852Z" fill="#000001"/>
<path d="M50.0156 7.13672V10.6992H53.5781V7.13672H57.1641V3.57422H32.1562V7.13672H50.0156Z" fill="#000001"/>
<path d="M35.7187 32.1445H32.1562V35.707H35.7187V32.1445Z" fill="#000001"/>
<path d="M35.7187 24.9961H32.1562V28.5586H35.7187V24.9961Z" fill="#000001"/>
<path d="M32.1563 17.8477H28.5938V24.9961H32.1563V17.8477Z" fill="#000001"/>
<path d="M32.1563 7.13672H25.0078V10.6992H32.1563V7.13672Z" fill="#000001"/>
<path d="M28.5937 14.2852H25.0078V17.8477H28.5937V14.2852Z" fill="#000001"/>
<path d="M25.0078 39.293H17.8594V42.8555H25.0078V39.293Z" fill="#000001"/>
<path d="M25.0078 24.9961H21.4453V28.5586H25.0078V24.9961Z" fill="#000001"/>
<path d="M25.0078 10.6992H17.8594V14.2852H25.0078V10.6992Z" fill="#000001"/>
<path d="M21.4453 28.5586H17.8594V32.1445H21.4453V28.5586Z" fill="#000001"/>
<path d="M17.8594 42.8555H10.7344V46.418H17.8594V42.8555Z" fill="#000001"/>
<path d="M17.8594 14.2852H14.2969V17.8477H17.8594V14.2852Z" fill="#000001"/>
<path d="M17.8594 32.1445H10.7344V35.707H17.8594V32.1445Z" fill="#000001"/>
<path d="M14.2969 17.8477H10.7344V21.4336H14.2969V17.8477Z" fill="#000001"/>
<path d="M10.7344 46.418H7.14844V50.0039H10.7344V46.418Z" fill="#000001"/>
<path d="M10.7344 21.4336H7.14844V24.9961H10.7344V21.4336Z" fill="#000001"/>
<path d="M7.14844 42.8555H3.58594V46.418H7.14844V42.8555Z" fill="#000001"/>
<path d="M3.58594 32.1445H10.7344V28.5586H7.14844V24.9961H3.58594V28.5586H0V42.8555H3.58594V32.1445Z" fill="#000001"/>
</svg>
