<svg width="45" height="45" viewBox="0 0 45 45" fill="none" xmlns="http://www.w3.org/2000/svg">
<g clip-path="url(#clip0_189_1086)">
<path d="M42.8625 34.2844H40.7109V29.9953H38.5734V25.7203H36.4219V21.4312H34.2844V17.1422H32.1469V12.8531H29.9953V8.56406H27.8578V4.28906H25.7203V2.1375H23.5688V0H21.4312V2.1375H19.2797V4.28906H17.1422V8.56406H15.0047V12.8531H12.8531V17.1422H10.7156V21.4312H8.56406V25.7203H6.42656V29.9953H4.28906V34.2844H2.1375V38.5734H0V42.8625H2.1375V45H42.8625V42.8625H45V38.5734H42.8625V34.2844ZM27.8578 38.5734H25.7203V40.7109H19.2797V38.5734H17.1422V32.1469H19.2797V29.9953H25.7203V32.1469H27.8578V38.5734ZM27.8578 23.5688H25.7203V27.8578H19.2797V23.5688H17.1422V15.0047H19.2797V12.8531H25.7203V15.0047H27.8578V23.5688Z" fill="#D0B90A"/>
<path d="M25.7203 17.1421H23.5687V21.4312H25.7203V17.1421Z" fill="#D0B90A"/>
<path d="M23.5688 15.0049H21.4313V17.1424H23.5688V15.0049Z" fill="#D0B90A"/>
</g>
<defs>
<clipPath id="clip0_189_1086">
<rect width="45" height="45" fill="white"/>
</clipPath>
</defs>
</svg>
