<svg width="11" height="11" viewBox="0 0 11 11" fill="none" xmlns="http://www.w3.org/2000/svg">
<g clip-path="url(#clip0_179_900)">
<path d="M10.4775 3.14188H9.95156V2.09344H9.42906V1.57094H8.90312V1.04844H7.85813V0.5225H6.80969V0H4.19031V0.5225H3.14188V1.04844H2.09344V1.57094H1.57094V2.09344H1.04844V3.14188H0.5225V4.19031H0V6.80969H0.5225V7.85813H1.04844V8.90312H1.57094V9.42906H2.09344V9.95156H3.14188V10.4775H4.19031V11H6.80969V10.4775H7.85813V9.95156H8.90312V9.42906H9.42906V8.90312H9.95156V7.85813H10.4775V6.80969H11V4.19031H10.4775V3.14188ZM6.80969 8.90312H6.28719V9.42906H4.71281V8.90312H4.19031V7.33219H4.71281V6.80969H6.28719V7.33219H6.80969V8.90312ZM7.33219 4.71281H6.80969V5.76125H6.28719V6.28719H4.71281V5.76125H4.19031V4.71281H3.66781V2.09344H4.19031V1.57094H6.80969V2.09344H7.33219V4.71281Z" fill="#D5230C"/>
<path d="M6.80973 2.61938H6.28723V4.19032H6.80973V2.61938Z" fill="#D5230C"/>
<path d="M6.28717 2.09351H5.76123V2.61944H6.28717V2.09351Z" fill="#D5230C"/>
</g>
<defs>
<clipPath id="clip0_179_900">
<rect width="11" height="11" fill="white"/>
</clipPath>
</defs>
</svg>
